<svg width="269" height="40" viewBox="0 0 269 40" fill="none" xmlns="http://www.w3.org/2000/svg">
<g filter="url(#filter0_d_0_1)">
<rect width="51" height="30" transform="translate(213 3)" fill="white"/>
<path d="M226.92 22.2051C228.889 22.2051 230.148 21.1973 230.148 19.5801V19.5742C230.148 18.3203 229.422 17.6055 227.646 17.2246L226.727 17.0195C225.631 16.7852 225.186 16.375 225.186 15.748V15.7422C225.186 14.9453 225.918 14.4824 226.908 14.4824C227.934 14.4766 228.596 14.9805 228.707 15.6719L228.719 15.748H229.99L229.984 15.666C229.891 14.3535 228.719 13.3398 226.926 13.3398C225.133 13.3398 223.867 14.3477 223.861 15.8066V15.8125C223.861 17.0605 224.6 17.8574 226.316 18.2207L227.242 18.4199C228.361 18.6602 228.818 19.082 228.818 19.7324V19.7383C228.818 20.5234 228.051 21.0625 226.973 21.0625C225.842 21.0625 225.027 20.5703 224.957 19.8027L224.951 19.7383H223.662L223.668 19.8145C223.785 21.2383 225.01 22.2051 226.92 22.2051ZM231.227 22H232.604L233.371 19.7148H236.605L237.367 22H238.75L235.697 13.5449H234.279L231.227 22ZM234.936 15.0273H235.035L236.254 18.6602H233.723L234.936 15.0273ZM240.221 22H245.494V20.8691H241.533V13.5449H240.221V22ZM247.158 22H252.525V20.8691H248.471V18.2383H252.309V17.1484H248.471V14.6758H252.525V13.5449H247.158V22Z" fill="#161C24"/>
</g>
<rect width="20" height="22" transform="translate(0 8)" fill="white"/>
<path d="M14 15L6 23M14 23L6 15L14 23Z" stroke="#E44286" stroke-linecap="round" stroke-linejoin="round"/>
<path d="M29.3262 23.5H30.5566V19.0088H35.9707V23.5H37.2012V13.6357H35.9707V17.9014H30.5566V13.6357H29.3262V23.5ZM42.7109 23.6299C44.4473 23.6299 45.5 22.6455 45.7529 21.6475L45.7666 21.5928H44.5771L44.5498 21.6543C44.3516 22.0986 43.7363 22.5703 42.7383 22.5703C41.4258 22.5703 40.585 21.6816 40.5508 20.1572H45.8555V19.6924C45.8555 17.4912 44.6387 16.001 42.6357 16.001C40.6328 16.001 39.334 17.5596 39.334 19.8359V19.8428C39.334 22.1533 40.6055 23.6299 42.7109 23.6299ZM42.6289 17.0605C43.7158 17.0605 44.5225 17.751 44.6455 19.207H40.5713C40.7012 17.8057 41.5352 17.0605 42.6289 17.0605ZM52.623 16.1309H46.6621V17.1152H49.0479V23.5H50.2373V17.1152H52.623V16.1309ZM58.2764 23.5H61.4141C63 23.5 63.9365 22.666 63.9365 21.3877V21.374C63.9365 20.5195 63.3418 19.8633 62.4053 19.7334V19.624C63.0957 19.4805 63.6084 18.79 63.6084 18.0586V18.0449C63.6084 16.8896 62.7949 16.1309 61.4004 16.1309H58.2764V23.5ZM59.4658 19.248V17.1152H61.2295C62.0566 17.1152 62.4258 17.5391 62.4258 18.168V18.1816C62.4258 18.8789 61.9951 19.248 61.0381 19.248H59.4658ZM59.4658 22.5156V20.2324H61.1406C62.2002 20.2324 62.7266 20.5742 62.7266 21.3535V21.3672C62.7266 22.1055 62.2686 22.5156 61.3662 22.5156H59.4658ZM74.7236 23.5H75.9131V16.1309H74.7236V19.1797H71.0732V16.1309H69.8838V23.5H71.0732V20.1641H74.7236V23.5ZM80.2812 23.6299C81.2725 23.6299 82.0449 23.1992 82.5098 22.4131H82.6191V23.5H83.8086V18.4551C83.8086 16.9238 82.8037 16.001 81.0059 16.001C79.4336 16.001 78.3125 16.7803 78.1211 17.9355L78.1143 17.9766H79.3037L79.3105 17.9561C79.502 17.3818 80.083 17.0537 80.9648 17.0537C82.0654 17.0537 82.6191 17.5459 82.6191 18.4551V19.125L80.5068 19.2549C78.791 19.3574 77.8203 20.1162 77.8203 21.4287V21.4424C77.8203 22.7822 78.8799 23.6299 80.2812 23.6299ZM79.0371 21.415V21.4014C79.0371 20.6699 79.5293 20.2734 80.6504 20.2051L82.6191 20.082V20.752C82.6191 21.8047 81.7373 22.5977 80.5273 22.5977C79.6729 22.5977 79.0371 22.1602 79.0371 21.415ZM87.8418 20.6152L88.1152 17.1152H90.6787V23.5H91.8682V16.1309H87.0488L86.7344 20.5195C86.6592 21.6133 86.3857 22.4678 85.709 22.4678C85.5312 22.4678 85.3467 22.4404 85.2852 22.4199V23.4932C85.3809 23.5273 85.5723 23.5684 85.8252 23.5684C87.0557 23.5684 87.6846 22.6455 87.8418 20.6152ZM94.2061 23.5H95.3955L99.0391 18.0039H99.1484V23.5H100.338V16.1309H99.1484L95.5049 21.627H95.3955V16.1309H94.2061V23.5ZM108.302 23.5V16.1309H107.112V19.2412C106.805 19.583 106.169 19.8223 105.246 19.8223C104.241 19.8223 103.735 19.207 103.735 18.2363V16.1309H102.546V18.2363C102.546 19.8086 103.469 20.875 105.246 20.875C106.039 20.875 106.606 20.7109 107.003 20.4307H107.112V23.5H108.302ZM110.64 23.5H111.829L115.473 18.0039H115.582V23.5H116.771V16.1309H115.582L111.938 21.627H111.829V16.1309H110.64V23.5ZM119.116 23.5H120.306L123.949 18.0039H124.059V23.5H125.248V16.1309H124.059L120.415 21.627H120.306V16.1309H119.116V23.5Z" fill="#454F5B"/>
<defs>
<filter id="filter0_d_0_1" x="208" y="0" width="61" height="40" filterUnits="userSpaceOnUse" color-interpolation-filters="sRGB">
<feFlood flood-opacity="0" result="BackgroundImageFix"/>
<feColorMatrix in="SourceAlpha" type="matrix" values="0 0 0 0 0 0 0 0 0 0 0 0 0 0 0 0 0 0 127 0" result="hardAlpha"/>
<feOffset dy="2"/>
<feGaussianBlur stdDeviation="2.5"/>
<feComposite in2="hardAlpha" operator="out"/>
<feColorMatrix type="matrix" values="0 0 0 0 0 0 0 0 0 0 0 0 0 0 0 0 0 0 0.03 0"/>
<feBlend mode="normal" in2="BackgroundImageFix" result="effect1_dropShadow_0_1"/>
<feBlend mode="normal" in="SourceGraphic" in2="effect1_dropShadow_0_1" result="shape"/>
</filter>
</defs>
</svg>
