<svg width="269" height="40" viewBox="0 0 269 40" fill="none" xmlns="http://www.w3.org/2000/svg">
<g filter="url(#filter0_d_0_1)">
<rect width="51" height="30" transform="translate(213 3)" fill="white"/>
<path d="M226.92 22.2051C228.889 22.2051 230.148 21.1973 230.148 19.5801V19.5742C230.148 18.3203 229.422 17.6055 227.646 17.2246L226.727 17.0195C225.631 16.7852 225.186 16.375 225.186 15.748V15.7422C225.186 14.9453 225.918 14.4824 226.908 14.4824C227.934 14.4766 228.596 14.9805 228.707 15.6719L228.719 15.748H229.99L229.984 15.666C229.891 14.3535 228.719 13.3398 226.926 13.3398C225.133 13.3398 223.867 14.3477 223.861 15.8066V15.8125C223.861 17.0605 224.6 17.8574 226.316 18.2207L227.242 18.4199C228.361 18.6602 228.818 19.082 228.818 19.7324V19.7383C228.818 20.5234 228.051 21.0625 226.973 21.0625C225.842 21.0625 225.027 20.5703 224.957 19.8027L224.951 19.7383H223.662L223.668 19.8145C223.785 21.2383 225.01 22.2051 226.92 22.2051ZM231.227 22H232.604L233.371 19.7148H236.605L237.367 22H238.75L235.697 13.5449H234.279L231.227 22ZM234.936 15.0273H235.035L236.254 18.6602H233.723L234.936 15.0273ZM240.221 22H245.494V20.8691H241.533V13.5449H240.221V22ZM247.158 22H252.525V20.8691H248.471V18.2383H252.309V17.1484H248.471V14.6758H252.525V13.5449H247.158V22Z" fill="#161C24"/>
</g>
<rect width="20" height="20" transform="translate(0 10)" fill="white"/>
<path d="M6 20L9 23L14 17" stroke="#24C56E" stroke-linecap="round" stroke-linejoin="round"/>
<path d="M29.3262 25H33.1748C35.2734 25 36.5176 23.9678 36.5176 22.2383V22.2246C36.5176 20.9258 35.6631 20.0029 34.3164 19.832V19.7227C35.2666 19.5518 36.0186 18.6221 36.0186 17.6035V17.5898C36.0186 16.0859 34.9111 15.1357 33.0996 15.1357H29.3262V25ZM32.8398 16.2227C34.0635 16.2227 34.7744 16.8037 34.7744 17.8018V17.8154C34.7744 18.8545 34.0156 19.3877 32.5254 19.3877H30.5566V16.2227H32.8398ZM32.874 20.4473C34.4463 20.4473 35.2529 21.0283 35.2529 22.1631V22.1768C35.2529 23.3115 34.4736 23.9131 32.9902 23.9131H30.5566V20.4473H32.874ZM47.2842 25H48.4736V17.6309H47.2842V20.6797H43.6338V17.6309H42.4443V25H43.6338V21.6641H47.2842V25ZM52.8418 25.1299C53.833 25.1299 54.6055 24.6992 55.0703 23.9131H55.1797V25H56.3691V19.9551C56.3691 18.4238 55.3643 17.501 53.5664 17.501C51.9941 17.501 50.873 18.2803 50.6816 19.4355L50.6748 19.4766H51.8643L51.8711 19.4561C52.0625 18.8818 52.6436 18.5537 53.5254 18.5537C54.626 18.5537 55.1797 19.0459 55.1797 19.9551V20.625L53.0674 20.7549C51.3516 20.8574 50.3809 21.6162 50.3809 22.9287V22.9424C50.3809 24.2822 51.4404 25.1299 52.8418 25.1299ZM51.5977 22.915V22.9014C51.5977 22.1699 52.0898 21.7734 53.2109 21.7051L55.1797 21.582V22.252C55.1797 23.3047 54.2979 24.0977 53.0879 24.0977C52.2334 24.0977 51.5977 23.6602 51.5977 22.915ZM60.4023 22.1152L60.6758 18.6152H63.2393V25H64.4287V17.6309H59.6094L59.2949 22.0195C59.2197 23.1133 58.9463 23.9678 58.2695 23.9678C58.0918 23.9678 57.9072 23.9404 57.8457 23.9199V24.9932C57.9414 25.0273 58.1328 25.0684 58.3857 25.0684C59.6162 25.0684 60.2451 24.1455 60.4023 22.1152ZM66.7666 25H67.9561L71.5996 19.5039H71.709V25H72.8984V17.6309H71.709L68.0654 23.127H67.9561V17.6309H66.7666V25ZM80.8623 25V17.6309H79.6729V20.7412C79.3652 21.083 78.7295 21.3223 77.8066 21.3223C76.8018 21.3223 76.2959 20.707 76.2959 19.7363V17.6309H75.1064V19.7363C75.1064 21.3086 76.0293 22.375 77.8066 22.375C78.5996 22.375 79.167 22.2109 79.5635 21.9307H79.6729V25H80.8623ZM83.2002 25H84.3896L88.0332 19.5039H88.1426V25H89.332V17.6309H88.1426L84.499 23.127H84.3896V17.6309H83.2002V25ZM91.6768 25H92.8662L96.5098 19.5039H96.6191V25H97.8086V17.6309H96.6191L92.9756 23.127H92.8662V17.6309H91.6768V25Z" fill="#454F5B"/>
<defs>
<filter id="filter0_d_0_1" x="208" y="0" width="61" height="40" filterUnits="userSpaceOnUse" color-interpolation-filters="sRGB">
<feFlood flood-opacity="0" result="BackgroundImageFix"/>
<feColorMatrix in="SourceAlpha" type="matrix" values="0 0 0 0 0 0 0 0 0 0 0 0 0 0 0 0 0 0 127 0" result="hardAlpha"/>
<feOffset dy="2"/>
<feGaussianBlur stdDeviation="2.5"/>
<feComposite in2="hardAlpha" operator="out"/>
<feColorMatrix type="matrix" values="0 0 0 0 0 0 0 0 0 0 0 0 0 0 0 0 0 0 0.03 0"/>
<feBlend mode="normal" in2="BackgroundImageFix" result="effect1_dropShadow_0_1"/>
<feBlend mode="normal" in="SourceGraphic" in2="effect1_dropShadow_0_1" result="shape"/>
</filter>
</defs>
</svg>
